<?xml version="1.0" encoding="UTF-8" standalone="no"?>
<!-- Created with Inkscape (http://www.inkscape.org/) -->

<svg
   width="208.92999mm"
   height="198.33mm"
   viewBox="0 0 208.92999 198.33001"
   version="1.1"
   id="svg1"
   sodipodi:docname="logo.svg"
   inkscape:version="1.4.3 (0d15f75042, 2025-12-25)"
   xmlns:inkscape="http://www.inkscape.org/namespaces/inkscape"
   xmlns:sodipodi="http://sodipodi.sourceforge.net/DTD/sodipodi-0.dtd"
   xmlns="http://www.w3.org/2000/svg"
   xmlns:svg="http://www.w3.org/2000/svg">
  <sodipodi:namedview
     id="namedview1"
     pagecolor="#505050"
     bordercolor="#eeeeee"
     borderopacity="1"
     inkscape:showpageshadow="0"
     inkscape:pageopacity="0"
     inkscape:pagecheckerboard="0"
     inkscape:deskcolor="#505050"
     inkscape:document-units="mm"
     inkscape:zoom="0.32"
     inkscape:cx="318.75"
     inkscape:cy="465.625"
     inkscape:window-width="940"
     inkscape:window-height="1036"
     inkscape:window-x="960"
     inkscape:window-y="24"
     inkscape:window-maximized="1"
     inkscape:current-layer="g1"
     showgrid="false" />
  <defs
     id="defs1" />
  <g
     id="layer1"
     transform="translate(-365.58023,-71.855395)">
    <g
       id="g30"
       style="display:none"
       transform="translate(81.860209,1.1369474)">
      <path
         id="path29"
         style="opacity:1;fill:#ffffff;fill-opacity:1;stroke:#f27830;stroke-width:0;stroke-linecap:round;stroke-linejoin:round;paint-order:stroke fill markers"
         d="m 378.53432,141.58602 18.57104,-32.16599 h 4.64408 l -20.89308,36.18788 z" />
      <path
         id="path30"
         style="opacity:1;fill:#ffffff;fill-opacity:1;stroke:#f27830;stroke-width:0;stroke-linecap:round;stroke-linejoin:round;paint-order:stroke fill markers"
         d="m 466.75073,141.58596 -18.57104,-32.16598 h -4.64408 l 20.89308,36.18788 z" />
    </g>
    <g
       id="g1"
       transform="translate(0,-5.2999906)">
      <path
         id="path6"
         style="fill:#f27830;stroke-width:0.265;paint-order:stroke fill markers"
         d="m 449.15241,176.3203 -20.89308,-36.18787 20.89307,-36.18786 41.78616,0 20.89308,36.18786 -20.89307,36.18787 z" />
      <path
         id="path7"
         style="fill:#f27830;stroke:#f27830;stroke-width:0;stroke-linecap:round;stroke-linejoin:round;paint-order:stroke fill markers"
         d="m 511.83131,140.13195 c -15.95344,9.55935 -19.76386,22.50029 -20.89278,36.18797 l 10.44639,18.09347 v 5.2e-4 c -4.95837,8.5769 -1.4771,14.60844 10.44639,18.09398 h 41.78608 5.2e-4 l 10.44691,-18.0945 h -5.2e-4 l 10.44639,-18.09347 -20.8933,-36.18797 z m 2.32234,4.02198 h 37.14192 l 18.57096,32.16599 -10.44588,18.09347 -8.12508,14.07253 h -37.14192 l -8.12509,-14.07253 -10.44639,-18.09347 z" />
      <path
         id="path8"
         style="fill:#f27830;stroke:#f27830;stroke-width:0"
         d="m 386.47307,140.13247 -20.8933,36.18745 10.44639,18.09347 10.44691,18.09451 h 41.78608 l 5.2e-4,-5.1e-4 c 7.90332,-4.02157 11.38556,-10.0531 10.44639,-18.09399 l 10.44587,-18.09347 c 0.0469,-14.62061 -6.91734,-26.6831 -20.89278,-36.18745 z m 2.32182,4.02146 h 37.14192 l 18.57148,32.16599 -10.44639,18.09347 -8.12509,14.07253 h -37.14192 l -8.12457,-14.07253 -10.44639,-18.09347 z" />
      <path
         d="m 501.38491,230.60222 h -62.67885 l 10.44639,18.09398 h 41.78607 z"
         style="fill:#f27830;fill-opacity:1;stroke-width:0.264583"
         id="path10" />
      <path
         d="m 438.70606,194.41424 -10.44691,18.09399 h 83.57215 l -10.44639,-18.09399 z"
         style="fill:#f27830;fill-opacity:1;stroke-width:0.264583"
         id="path11" />
      <path
         id="path33"
         style="fill:#f27830;fill-opacity:1;stroke:#f27830;stroke-width:0;stroke-linecap:round;stroke-linejoin:round;paint-order:stroke fill markers"
         d="m 449.1526,248.69616 -20.89308,-36.18788 c 1.20203,-1.54332 2.75005,-1.54332 4.64408,0 l 20.8997,36.18788 z" />
      <path
         id="path34"
         style="fill:#f27830;fill-opacity:1;stroke:#f27830;stroke-width:0;stroke-linecap:round;stroke-linejoin:round;paint-order:stroke fill markers"
         d="m 490.93837,248.69616 20.89308,-36.18788 c 1.54783,-2.04336 -2e-4,-2.04336 -4.64409,0 l -20.89969,36.18788 z" />
    </g>
  </g>
</svg>
