<?xml version="1.0" encoding="UTF-8" standalone="no"?>
<!-- Created with Inkscape (http://www.inkscape.org/) -->

<svg
   width="224.202mm"
   height="224.202mm"
   viewBox="0 0 224.202 224.20199"
   version="1.1"
   id="svg1"
   sodipodi:docname="logo.svg"
   inkscape:version="1.4.2 (f4327f4, 2025-05-13)"
   xmlns:inkscape="http://www.inkscape.org/namespaces/inkscape"
   xmlns:sodipodi="http://sodipodi.sourceforge.net/DTD/sodipodi-0.dtd"
   xmlns="http://www.w3.org/2000/svg"
   xmlns:svg="http://www.w3.org/2000/svg">
  <sodipodi:namedview
     id="namedview1"
     pagecolor="#505050"
     bordercolor="#ffffff"
     borderopacity="1"
     inkscape:showpageshadow="0"
     inkscape:pageopacity="0"
     inkscape:pagecheckerboard="1"
     inkscape:deskcolor="#505050"
     inkscape:document-units="mm"
     inkscape:zoom="0.38173648"
     inkscape:cx="-161.1059"
     inkscape:cy="351.0275"
     inkscape:window-width="1536"
     inkscape:window-height="801"
     inkscape:window-x="-8"
     inkscape:window-y="-8"
     inkscape:window-maximized="1"
     inkscape:current-layer="svg1" />
  <defs
     id="defs1" />
  <path
     id="path8"
     style="fill:#cc785c;fill-opacity:1;stroke-width:10.2672;stroke-linecap:square;paint-order:stroke fill markers"
     d="m -87.766888,103.437 -9.40583,16.29148 h 61.598636 l -9.40584,-16.29148 z m -15.568112,26.96537 -5.82508,10.08909 5.82508,10.08909 h 73.923198 l 5.82508,-10.08909 -5.82508,-10.08909 z m 6.162282,30.85266 9.40583,16.29146 h 42.786966 l 9.40584,-16.29146 z" />
  <path
     style="baseline-shift:baseline;display:inline;overflow:visible;opacity:1;vector-effect:none;fill:#cc785c;stroke-linecap:square;paint-order:stroke fill markers;enable-background:accumulate;stop-color:#cc785c;stop-opacity:1"
     d="m 151.92383,69.912109 -4.2e-4,10.267578 42.78753,0 18.42968,31.921873 -18.42968,31.91992 h -39.82227 -5.13476 v 10.26758 h 5.13476 45.75 l 24.35742,-42.1875 -24.35742,-42.189451 z"
     id="path9"
     sodipodi:nodetypes="ccccccccccccc" />
  <path
     style="baseline-shift:baseline;display:inline;overflow:visible;opacity:1;vector-effect:none;fill:#cc785c;stroke-linecap:square;paint-order:stroke fill markers;enable-background:accumulate;stop-color:#cc785c;stop-opacity:1"
     d="M 23.5625,69.912109 -0.79492187,112.10156 23.5625,154.28906 h 45.751953 5.132813 V 144.02148 H 69.314453 29.490234 L 11.0625,112.10156 29.490234,80.179687 l 42.788449,0 -0.0013,-10.267218 z"
     id="path10"
     sodipodi:nodetypes="ccccccccccccc" />
  <path
     style="fill:#cc785c;fill-opacity:1;stroke:none;stroke-width:10.2672;stroke-linecap:square;stroke-dasharray:none;stroke-opacity:1;paint-order:stroke fill markers"
     id="path7"
     d="M 133.4945,112.09949 H 90.707594 l -21.39346,-37.054551 21.39346,-37.054563 42.786916,2e-6 21.39345,37.054561 z"
     sodipodi:nodetypes="ccccccc" />
  <path
     id="path1"
     style="fill:#cc785c;fill-opacity:1;stroke:none;stroke-width:10.2672;stroke-linecap:square;stroke-dasharray:none;paint-order:stroke fill markers"
     d="m 90.707642,112.10117 -5.17e-4,0.001 h 42.788085 l -5.2e-4,-0.001 z m -10.697022,18.52807 -10.696505,18.52651 -1.212933,5.13321 86.786008,-1e-4 -10.69547,-23.65962 z m 5.17e-4,37.05406 10.696505,18.52704 H 133.49469 L 144.1912,167.6833 Z"
     sodipodi:nodetypes="cccccccccccccccc" />
  <path
     style="opacity:0.481013;fill:#cc785c;fill-opacity:1;stroke:none;stroke-width:10.267;stroke-linecap:square;stroke-opacity:1;paint-order:stroke fill markers"
     d="M 90.707124,112.10217 H 73.209181"
     id="path2" />
  <path
     style="opacity:0.481013;fill:#cc785c;fill-opacity:1;stroke:none;stroke-width:10.267;stroke-linecap:square;stroke-opacity:1;paint-order:stroke fill markers"
     d="m 133.4945,112.10081 h 13.18378"
     id="path3" />
  <text
     x="210"
     y="22"
     font-size="14"
     font-family="sans-serif"
     fill="#cc785c"
     font-weight="bold"
     style="baseline-shift:super">tm</text>
</svg>
